<svg height="511pt" viewBox="1 -33 511.999 511" width="511pt" xmlns="http://www.w3.org/2000/svg"><path d="m464.351562.5h-416.730468c-26.257813 0-47.621094 21.359375-47.621094 47.613281v273.3125c0 26.253907 21.363281 47.613281 47.621094 47.613281h150.785156l-5.734375 19.410157h-28.777344c-15.742187 0-28.542969 12.804687-28.542969 28.542969 0 15.71875 12.800782 28.507812 28.542969 28.507812h184.214844c15.722656 0 28.515625-12.789062 28.515625-28.507812 0-15.738282-12.792969-28.542969-28.515625-28.542969h-28.78125l-5.734375-19.410157h150.757812c26.273438 0 47.648438-21.359374 47.648438-47.613281v-273.3125c0-26.253906-21.375-47.613281-47.648438-47.613281zm-107.738281 416.492188c0 4.683593-3.816406 8.5-8.503906 8.5h-184.21875c-4.703125 0-8.53125-3.8125-8.53125-8.5 0-4.707032 3.828125-8.53125 8.53125-8.53125h184.21875c4.6875 0 8.503906 3.824218 8.503906 8.53125zm-58.148437-28.542969h-84.929688l5.738282-19.410157h73.453124zm165.886718-39.421875h-416.730468c-15.226563 0-27.609375-12.382813-27.609375-27.601563v-9.378906h318.433593c5.523438 0 10.003907-4.476563 10.003907-10.003906 0-5.527344-4.480469-10.003907-10.003907-10.003907h-48.882812c-2.984375-22.902343-13.582031-42.839843-30.992188-58.09375-11.144531-9.765624-25.070312-17.441406-40.566406-22.554687 14.976563-12.359375 23.726563-29.539063 23.726563-47.195313v-16c6.753906-4.742187 11.828125-12.871093 13.640625-16.046874 12.152344-21.265626 12.417968-45.828126.703125-65.707032-1.445313-2.453125-3.867188-4.175781-6.660157-4.730468-2.792968-.554688-5.691406.101562-7.96875 1.8125-17.542968 13.1875-34.617187 10.742187-56.234374 7.652343-4.683594-.667969-9.523438-1.359375-14.507813-1.894531-19.589844-2.082031-37.234375 3.445312-49.679687 15.566406-13.742188 13.378906-20.324219 33.671875-18.582032 57.179688v22.167968c0 18.128907 9.292969 35.117188 23.59375 47.042969-15.644531 5.347657-29.945312 13.953125-41.691406 25.316407-16.007812 15.480468-26.152344 34.894531-29.167969 55.480468h-35.164062v-243.921875c0-15.222656 12.382812-27.601562 27.605469-27.601562h416.734374c15.238282 0 27.636719 12.382812 27.636719 27.601562v243.921875h-73.699219c-5.523437 0-10.003906 4.480469-10.003906 10.007813 0 5.523437 4.480469 10.003906 10.003906 10.003906h73.699219v9.378906c.003907 15.222657-12.398437 27.601563-27.636719 27.601563zm-233.992187-217.253906h-45.945313c-25.292968 0-28.566406-5.382813-29.882812-11.382813-1.046875-4.777344-5.394531-8.089844-10.277344-7.847656-4.886718.246093-8.875 3.988281-9.433594 8.847656-.761718 6.609375-3.5 8.511719-4.398437 9.132813-2.257813 1.566406-5.351563 2.132812-8.230469 2.226562.375-14.054688 4.800782-25.785156 12.789063-33.566406 6.996093-6.8125 16.453125-10.332032 27.585937-10.332032 1.953125 0 3.960938.109376 6.011719.328126 4.621094.496093 9.285156 1.160156 13.800781 1.808593 19.722656 2.820313 40.023438 5.722657 60.613282-4.871093 2.882812 9.746093 1.597656 18.761718-.34375 25.246093-3.359376 11.207031-9.589844 18.527344-12.289063 20.410157zm-107.910156 21.003906c5.921875-.148438 13.015625-1.453125 19.234375-5.714844 1.488281-1.019531 3.085937-2.324219 4.636718-3.984375 9.855469 7.363281 24.222657 8.703125 38.09375 8.703125h37.304688v12.414062c0 13.246094-7.839844 26.375-20.984375 35.125-8.632813 5.773438-18.664063 8.941407-28.285156 8.941407-.105469 0-.207031 0-.308594 0-4.761719-.027344-9.445313-.757813-13.917969-2.066407-.617187-.269531-1.261718-.472656-1.929687-.609374-19.042969-6.371094-33.84375-23.28125-33.84375-41.390626zm49.566406 75.496094h.441406c6.238281 0 12.570313-.9375 18.746094-2.71875 34.714844 5.058593 71.472656 25.066406 78.148437 66.480468h-32.753906v-7.308594c0-5.527343-4.480468-10.007812-10.003906-10.007812-5.527344 0-10.007812 4.480469-10.007812 10.007812v7.308594h-90.308594v-7.367187c0-5.527344-4.480469-10.003907-10.003906-10.003907-5.527344 0-10.007813 4.476563-10.007813 10.003907v7.367187h-30.78125c6.570313-34.109375 38.617187-62.117187 77.695313-66.472656 6.042968 1.714844 12.367187 2.671875 18.835937 2.710938zm0 0"/><path d="m378.550781 292.035156h-.167969c-5.527343 0-10.003906 4.480469-10.003906 10.007813 0 5.523437 4.476563 10.003906 10.003906 10.003906h.167969c5.527344 0 10.007813-4.480469 10.007813-10.003906-.003906-5.527344-4.480469-10.007813-10.007813-10.007813zm0 0"/><path d="m456.78125 148.523438v-65.042969c0-15.40625-12.535156-27.945313-27.945312-27.945313h-108.476563c-15.414063 0-27.949219 12.539063-27.949219 27.945313v65.042969c0 15.40625 12.535156 27.945312 27.949219 27.945312h11.0625l3.085937 22.898438c.457032 3.398437 2.625 6.328124 5.742188 7.757812 1.328125.613281 2.753906.914062 4.171875.914062 1.90625 0 3.804687-.542968 5.453125-1.617187l46.097656-29.953125h32.863282c15.410156-.003906 27.945312-12.539062 27.945312-27.945312zm-63.773438 7.933593c-1.9375 0-3.828124.558594-5.453124 1.617188l-35.324219 22.957031-2.144531-15.90625c-.667969-4.964844-4.90625-8.667969-9.914063-8.667969h-19.8125c-4.304687 0-7.9375-3.632812-7.9375-7.933593v-65.042969c0-4.300781 3.632813-7.933594 7.9375-7.933594h108.476563c4.300781 0 7.9375 3.632813 7.9375 7.933594v65.042969c0 4.300781-3.636719 7.933593-7.9375 7.933593zm0 0"/><path d="m401.425781 89.914062h-53.65625c-5.527343 0-10.007812 4.476563-10.007812 10.003907 0 5.527343 4.480469 10.003906 10.007812 10.003906h53.65625c5.523438 0 10.003907-4.476563 10.003907-10.003906 0-5.527344-4.480469-10.003907-10.003907-10.003907zm0 0"/><path d="m401.425781 121.765625h-53.65625c-5.527343 0-10.007812 4.480469-10.007812 10.007813 0 5.523437 4.480469 10.003906 10.007812 10.003906h53.65625c5.523438 0 10.003907-4.480469 10.003907-10.003906 0-5.527344-4.480469-10.007813-10.003907-10.007813zm0 0"/></svg>